<svg width="14" height="14" viewBox="0 0 14 14" fill="none" xmlns="http://www.w3.org/2000/svg">
<path d="M7.00001 8.05327L1.92701 13.1265C1.78851 13.2649 1.61443 13.3357 1.40476 13.339C1.19526 13.3422 1.01801 13.2714 0.873012 13.1265C0.728178 12.9815 0.655762 12.8059 0.655762 12.5995C0.655762 12.3932 0.728178 12.2175 0.873012 12.0725L5.94626 6.99952L0.873012 1.92652C0.734678 1.78802 0.663845 1.61394 0.660512 1.40427C0.657345 1.19477 0.728178 1.01752 0.873012 0.872524C1.01801 0.72769 1.19368 0.655273 1.40001 0.655273C1.60635 0.655273 1.78201 0.72769 1.92701 0.872524L7.00001 5.94577L12.073 0.872524C12.2115 0.73419 12.3856 0.663357 12.5953 0.660023C12.8048 0.656857 12.982 0.72769 13.127 0.872524C13.2718 1.01752 13.3443 1.19319 13.3443 1.39952C13.3443 1.60586 13.2718 1.78152 13.127 1.92652L8.05376 6.99952L13.127 12.0725C13.2653 12.211 13.3362 12.3851 13.3395 12.5948C13.3427 12.8043 13.2718 12.9815 13.127 13.1265C12.982 13.2714 12.8063 13.3438 12.6 13.3438C12.3937 13.3438 12.218 13.2714 12.073 13.1265L7.00001 8.05327Z" fill="#334155"/>
</svg>
