<svg width="34" height="34" viewBox="0 0 34 34" fill="none" xmlns="http://www.w3.org/2000/svg">
<rect x="0.5" y="0.5" width="33" height="33" rx="16.5" fill="#E2E8F0"/>
<rect x="0.5" y="0.5" width="33" height="33" rx="16.5" stroke="#E2E8F0"/>
<mask id="mask0_61_669" style="mask-type:alpha" maskUnits="userSpaceOnUse" x="5" y="5" width="24" height="24">
<rect x="5" y="5" width="24" height="24" fill="#D9D9D9"/>
</mask>
<g mask="url(#mask0_61_669)">
<path d="M17 16.6923C16.0375 16.6923 15.2136 16.3496 14.5283 15.6643C13.8428 14.9788 13.5 14.1548 13.5 13.1923C13.5 12.2298 13.8428 11.4058 14.5283 10.7205C15.2136 10.035 16.0375 9.69225 17 9.69225C17.9625 9.69225 18.7864 10.035 19.4718 10.7205C20.1573 11.4058 20.5 12.2298 20.5 13.1923C20.5 14.1548 20.1573 14.9788 19.4718 15.6643C18.7864 16.3496 17.9625 16.6923 17 16.6923ZM9.5 22.7885V22.0845C9.5 21.5948 9.633 21.1413 9.899 20.724C10.165 20.3067 10.5205 19.9858 10.9655 19.7615C11.9538 19.277 12.9509 18.9136 13.9567 18.6713C14.9626 18.4289 15.977 18.3078 17 18.3078C18.023 18.3078 19.0374 18.4289 20.0433 18.6713C21.0491 18.9136 22.0462 19.277 23.0345 19.7615C23.4795 19.9858 23.835 20.3067 24.101 20.724C24.367 21.1413 24.5 21.5948 24.5 22.0845V22.7885C24.5 23.2102 24.3523 23.5688 24.0568 23.8645C23.7613 24.16 23.4026 24.3078 22.9808 24.3078H11.0193C10.5974 24.3078 10.2387 24.16 9.94325 23.8645C9.64775 23.5688 9.5 23.2102 9.5 22.7885ZM11 22.8078H23V22.0845C23 21.882 22.9413 21.6945 22.824 21.522C22.7067 21.3497 22.5474 21.209 22.3462 21.1C21.4846 20.6757 20.6061 20.3542 19.7107 20.1355C18.8152 19.917 17.9117 19.8078 17 19.8078C16.0883 19.8078 15.1848 19.917 14.2893 20.1355C13.3939 20.3542 12.5154 20.6757 11.6537 21.1C11.4526 21.209 11.2933 21.3497 11.176 21.522C11.0587 21.6945 11 21.882 11 22.0845V22.8078ZM17 15.1923C17.55 15.1923 18.0208 14.9964 18.4125 14.6048C18.8042 14.2131 19 13.7423 19 13.1923C19 12.6423 18.8042 12.1714 18.4125 11.7798C18.0208 11.3881 17.55 11.1923 17 11.1923C16.45 11.1923 15.9792 11.3881 15.5875 11.7798C15.1958 12.1714 15 12.6423 15 13.1923C15 13.7423 15.1958 14.2131 15.5875 14.6048C15.9792 14.9964 16.45 15.1923 17 15.1923Z" fill="#64748B"/>
</g>
</svg>
