<svg width="16" height="16" viewBox="0 0 16 16" fill="none" xmlns="http://www.w3.org/2000/svg">
<mask id="mask0_3136_16646" style="mask-type:alpha" maskUnits="userSpaceOnUse" x="0" y="0" width="16" height="16">
<rect width="16" height="16" fill="#D9D9D9"/>
</mask>
<g mask="url(#mask0_3136_16646)">
<path d="M7.05514 9.43018L5.50647 7.88135C5.41414 7.78913 5.29808 7.7419 5.1583 7.73968C5.01864 7.73757 4.90047 7.78479 4.8038 7.88135C4.70725 7.97802 4.65897 8.09513 4.65897 8.23268C4.65897 8.37024 4.70725 8.48735 4.8038 8.58401L6.6333 10.4135C6.75386 10.534 6.89447 10.5942 7.05514 10.5942C7.2158 10.5942 7.35641 10.534 7.47697 10.4135L11.186 6.70452C11.2782 6.61218 11.3254 6.49613 11.3276 6.35635C11.3297 6.21668 11.2825 6.09852 11.186 6.00185C11.0893 5.90529 10.9722 5.85702 10.8346 5.85702C10.6971 5.85702 10.58 5.90529 10.4833 6.00185L7.05514 9.43018ZM8.00247 14.3327C7.12647 14.3327 6.30308 14.1665 5.5323 13.834C4.76152 13.5016 4.09108 13.0504 3.52097 12.4805C2.95086 11.9106 2.49947 11.2405 2.1668 10.47C1.83425 9.69957 1.66797 8.8764 1.66797 8.00052C1.66797 7.12452 1.83419 6.30113 2.16664 5.53035C2.49908 4.75957 2.95025 4.08913 3.52014 3.51902C4.09002 2.9489 4.76019 2.49752 5.53064 2.16485C6.30108 1.83229 7.12425 1.66602 8.00013 1.66602C8.87613 1.66602 9.69952 1.83224 10.4703 2.16468C11.2411 2.49713 11.9115 2.94829 12.4816 3.51818C13.0517 4.08807 13.5031 4.75824 13.8358 5.52868C14.1684 6.29913 14.3346 7.12229 14.3346 7.99818C14.3346 8.87418 14.1684 9.69757 13.836 10.4683C13.5035 11.2391 13.0524 11.9096 12.4825 12.4797C11.9126 13.0498 11.2424 13.5012 10.472 13.8338C9.70152 14.1664 8.87836 14.3327 8.00247 14.3327ZM8.0013 13.3327C9.49019 13.3327 10.7513 12.816 11.7846 11.7827C12.818 10.7493 13.3346 9.48824 13.3346 7.99935C13.3346 6.51046 12.818 5.24935 11.7846 4.21602C10.7513 3.18268 9.49019 2.66602 8.0013 2.66602C6.51241 2.66602 5.2513 3.18268 4.21797 4.21602C3.18464 5.24935 2.66797 6.51046 2.66797 7.99935C2.66797 9.48824 3.18464 10.7493 4.21797 11.7827C5.2513 12.816 6.51241 13.3327 8.0013 13.3327Z" fill="#37D39A"/>
</g>
</svg>
