<?xml version="1.0" encoding="UTF-8"?>
<!-- Generator: visioncortex VTracer -->
<svg id="svg" version="1.1" xmlns="http://www.w3.org/2000/svg" style="display: block;" viewBox="0 0 64 64"><path d="M0 0 C1.32 0 2.64 0 4 0 C4.06058594 0.71027344 4.12117187 1.42054687 4.18359375 2.15234375 C4.26738281 3.07144531 4.35117188 3.99054687 4.4375 4.9375 C4.51871094 5.85402344 4.59992187 6.77054688 4.68359375 7.71484375 C4.76044976 9.96159732 4.76044976 9.96159732 6 11 C8.65456193 11.10095564 11.28255176 11.13970998 13.9375 11.1328125 C15.13040649 11.13424759 15.13040649 11.13424759 16.34741211 11.13571167 C18.0320646 11.13639343 19.71671971 11.13453943 21.40136719 11.13037109 C23.98899197 11.12502275 26.57644316 11.13031619 29.1640625 11.13671875 C30.79687539 11.13605797 32.42968816 11.1347768 34.0625 11.1328125 C34.84165771 11.13483673 35.62081543 11.13686096 36.42358398 11.13894653 C40.007942 11.4583958 40.007942 11.4583958 43 10 C43.23287008 8.31816052 43.41264166 6.6287584 43.5625 4.9375 C43.64628906 4.01839844 43.73007812 3.09929688 43.81640625 2.15234375 C43.90728516 1.08693359 43.90728516 1.08693359 44 0 C45.32 0 46.64 0 48 0 C48.05384521 2.29141286 48.09272087 4.58318188 48.125 6.875 C48.14820313 8.15117188 48.17140625 9.42734375 48.1953125 10.7421875 C48 14 48 14 46 16 C44.10253906 16.25396729 44.10253906 16.25396729 41.765625 16.25878906 C40.45416504 16.26824554 40.45416504 16.26824554 39.11621094 16.27789307 C37.69743652 16.27182037 37.69743652 16.27182037 36.25 16.265625 C35.28094727 16.26753845 34.31189453 16.2694519 33.31347656 16.27142334 C31.26236715 16.27278579 29.21124914 16.26908518 27.16015625 16.26074219 C24.01282461 16.25004359 20.8660638 16.26063554 17.71875 16.2734375 C15.7291654 16.27211592 13.73958116 16.26955355 11.75 16.265625 C10.80415039 16.26967346 9.85830078 16.27372192 8.88378906 16.27789307 C8.00948242 16.27158875 7.13517578 16.26528442 6.234375 16.25878906 C5.46319336 16.25719788 4.69201172 16.25560669 3.89746094 16.25396729 C2 16 2 16 0 14 C-0.1953125 10.7421875 -0.1953125 10.7421875 -0.125 6.875 C-0.10695313 5.59367187 -0.08890625 4.31234375 -0.0703125 2.9921875 C-0.04710937 2.00476562 -0.02390625 1.01734375 0 0 Z " transform="translate(8,38)" style="fill: #FFFFFF;"/><path d="M0 0 C1.32 0 2.64 0 4 0 C4.33 9.24 4.66 18.48 5 28 C7.97 25.525 7.97 25.525 11 23 C12.32 23.66 13.64 24.32 15 25 C12.83209106 30.20067518 8.73870124 33.15999739 4 36 C0.2869 36.45466531 -1.14250969 35.60446039 -4.14453125 33.48828125 C-6.30441555 31.74448675 -8.24377281 30.15293841 -10 28 C-10 26.68 -10 25.36 -10 24 C-5.53159589 24.49648935 -4.31012244 24.68987756 -1 28 C-0.67 18.76 -0.34 9.52 0 0 Z " transform="translate(30,10)" style="fill: #FFFFFF;"/></svg>