<svg width="16" height="16" viewBox="0 0 16 16" fill="none" xmlns="http://www.w3.org/2000/svg">
<path d="M7.25001 3.37295L2.08076 8.5422C1.93209 8.69087 1.75809 8.76429 1.55876 8.76245C1.35942 8.76045 1.18217 8.68195 1.02701 8.52695C0.882174 8.37179 0.807174 8.19612 0.802008 7.99995C0.796841 7.80379 0.871841 7.62812 1.02701 7.47295L7.36726 1.1327C7.46092 1.03904 7.55967 0.973036 7.66351 0.934703C7.76734 0.896203 7.87951 0.876953 8.00001 0.876953C8.12051 0.876953 8.23267 0.896203 8.33651 0.934703C8.44034 0.973036 8.53909 1.03904 8.63276 1.1327L14.973 7.47295C15.1115 7.61145 15.1823 7.78295 15.1855 7.98745C15.1887 8.19195 15.1178 8.37179 14.973 8.52695C14.8178 8.68195 14.6397 8.75945 14.4385 8.75945C14.2372 8.75945 14.0589 8.68195 13.9038 8.52695L8.75001 3.37295V14.75C8.75001 14.9628 8.67817 15.141 8.53451 15.2845C8.39101 15.4281 8.21284 15.5 8.00001 15.5C7.78717 15.5 7.60901 15.4281 7.46551 15.2845C7.32184 15.141 7.25001 14.9628 7.25001 14.75V3.37295Z" fill="white"/>
</svg>
