<svg width="9" height="5" viewBox="0 0 9 5" fill="none" xmlns="http://www.w3.org/2000/svg">
<path d="M4.50016 4.78467C4.41983 4.78467 4.34505 4.77184 4.27583 4.74617C4.20661 4.72051 4.14078 4.67651 4.07833 4.61417L1.08216 1.61801C0.989942 1.52568 0.94272 1.40962 0.940497 1.26984C0.938386 1.13017 0.985609 1.01201 1.08216 0.915341C1.17883 0.818786 1.29594 0.770508 1.4335 0.770508C1.57105 0.770508 1.68816 0.818786 1.78483 0.915341L4.50016 3.63084L7.2155 0.915341C7.30783 0.823119 7.42389 0.775897 7.56366 0.773675C7.70333 0.771563 7.8215 0.818786 7.91816 0.915341C8.01472 1.01201 8.063 1.12912 8.063 1.26667C8.063 1.40423 8.01472 1.52134 7.91816 1.61801L4.922 4.61417C4.85955 4.67651 4.79372 4.72051 4.7245 4.74617C4.65528 4.77184 4.5805 4.78467 4.50016 4.78467Z" fill="#1C1B1F"/>
</svg>
