<svg version="1.2" xmlns="http://www.w3.org/2000/svg" viewBox="0 0 1014 195" width="1014" height="195">
	<title>logo-dark-svg</title>
	<style>
		.s0 { fill: #014141 } 
		.s1 { fill: #48bea1 } 
	</style>
	<g id="Layer">
		<path id="Layer" class="s0" d="m100.3 50.8c21.5 0 39 15.1 43.5 36h45.2c-2.4-21.6-11.7-39.8-28.5-53.8-16.7-14.1-36.9-20.9-60.6-20.9-26.3 0-48.2 8.2-65.4 24.6-17.4 16.8-26 37.7-26 63.4 0 25.7 8.6 46.6 26 63 17.2 16.4 39.1 24.6 65.4 24.6 23.7 0 43.9-6.8 60.6-20.8 16.8-14.1 26.1-31.9 28.5-53.5h-44.9c-4.5 20.9-22.3 35.7-43.8 35.7-26.4 0-45.9-20.6-45.9-49 0-28.4 18.8-49.3 45.9-49.3z"/>
		<path id="Layer" class="s0" d="m448 53.2v-37.7h-44.5v169.2h44.5v-81.5c0-30.1 24-48.6 61.3-48.6v-44.5c-27.7 0-49.3 15.7-61.3 43.1z"/>
		<path id="Layer" fill-rule="evenodd" class="s0" d="m667.8 36.8c17.1 16.7 25.6 38 26 63.7 0 5.1-0.4 9.5-1.4 13.3h-136.6c5.5 22.3 24 37.7 47.2 37.7 19.6 0 36.3-11.7 42.8-27.1h44.9c-4.8 18.5-15.4 33.6-31.8 45.6-16.5 11.9-35.3 17.7-56.2 17.7-26.4 0-48.3-8.2-65.4-24.6-17.5-16.4-26-37.3-26-63 0-25.7 8.5-46.6 26-63.3 17.1-16.5 39-24.7 65.4-24.7 26.4 0 47.9 8.2 65.1 24.7zm-17.5 43.1c-6.9-18.8-26.4-31.5-47.3-31.5-20.8 0-38.3 12.3-45.5 31.5z"/>
		<path id="Layer" fill-rule="evenodd" class="s0" d="m838 124.9h30v21.2h-30v38.6h-25.3v-38.6h-85.1v-18.7l80.2-112.9h30.2zm-25.1-82.1l-59.7 82.1h59.5z"/>
		<path id="Layer" class="s0" d="m912.5 163.5c0.3-2.9 0.8-5.6 1.8-8.3 1.9-5.2 8.6-11.3 11.5-14.3 1.5-1.5 4.7-3.7 9.4-6.6 4.6-3 7.6-4.9 8.8-5.7 1.2-0.7 4.9-2.9 10.6-6.1 14.5-8.6 21.9-13.8 32.7-23.9 10.6-10.1 15.7-22.4 15.7-36.9 0-14.5-5.4-26.3-16-35.6-10.5-9.1-24.3-13.8-40.8-13.8-16.4 0-30.5 4.7-41.3 14.3-10.8 9.6-16.7 22.6-17.5 39.1h24.4c1.2-20.4 15.2-32.3 33.9-32.3 18.7 0 32.3 12.1 32.3 29.6 0 18.9-14.8 31.9-42.1 47.9-6.4 3.7-11.3 6.7-14.5 8.9-3.2 2.2-7.6 5.4-13.3 10-5.6 4.7-9.8 9.4-12.5 13.6-5.9 8.8-11.3 23.1-11.3 38.8v2.5h121.2v-21.2h-93z"/>
	</g>
	<g id="Layer">
		<path id="Layer" class="s0" d="m384.3 100c0 48.6-39.3 87.9-87.9 87.9v-40.6h0.1q0.5 0 1 0 0.3 0 0.6-0.1 1.2 0 2.4-0.1 0.5-0.1 0.9-0.1 1-0.1 2.1-0.3 0.2 0 0.4 0 0.2 0 0.3-0.1 0.3 0 0.6-0.1 0.8-0.1 1.5-0.3 1.6-0.3 3.1-0.8 0.3 0 0.6-0.1 0.5-0.2 0.9-0.3 0.2-0.1 0.4-0.1 0.7-0.3 1.3-0.5 0.1 0 0.2-0.1 0.7-0.2 1.3-0.5 0.2 0 0.3-0.1 0.5-0.2 1-0.4 0.3-0.2 0.6-0.3 0.6-0.3 1.2-0.5 0-0.1 0.1-0.1 0.6-0.3 1.2-0.6 0.7-0.4 1.4-0.8 0.6-0.4 1.2-0.7 0 0 0.1 0 0.5-0.4 1.1-0.8 0.6-0.4 1.2-0.8 0.6-0.4 1.1-0.8 1.2-0.9 2.3-1.8 0.5-0.5 1-0.9 0.6-0.5 1.1-1 0.4-0.4 0.9-0.9 0.3-0.3 0.6-0.6 1.3-1.3 2.4-2.7 0.6-0.7 1.1-1.5 0.5-0.5 0.9-1.1 0.6-0.9 1.3-1.9 0 0 0 0 0.6-1 1.1-1.9 1.8-3 3-6.3 0.2-0.5 0.4-1 0.2-0.6 0.4-1.1 0.2-0.6 0.4-1.1 0.3-1.1 0.6-2.3 0.3-1.1 0.5-2.3 0.2-0.6 0.3-1.1 0.1-0.6 0.1-1.2 0.1-0.3 0.1-0.7 0-0.1 0.1-0.2 0-0.1 0-0.2 0-0.1 0-0.3 0.2-1.1 0.2-2.1 0.1-0.5 0.1-1.1 0-0.1 0-0.3 0-0.5 0.1-1 0-0.7 0-1.3 0-0.6 0-1.2 0-0.5-0.1-1.1 0-0.1 0-0.2 0-0.6-0.1-1.1 0-1.1-0.2-2.3 0 0 0-0.1 0-0.3-0.1-0.5-0.1-0.9-0.3-1.8-0.1-0.6-0.2-1.2-0.4-2.3-1.1-4.5-0.3-0.8-0.6-1.7-0.3-0.8-0.6-1.6-0.3-0.7-0.6-1.5-0.4-0.8-0.8-1.6-0.2-0.6-0.5-1.1-0.2-0.4-0.4-0.8-0.1-0.2-0.2-0.3-0.2-0.4-0.4-0.7-0.1-0.2-0.2-0.4-0.2-0.4-0.5-0.8-0.2-0.4-0.6-0.9-0.6-1-1.2-1.9-0.5-0.7-1-1.3-0.5-0.7-1.1-1.4-1.1-1.3-2.3-2.6-0.3-0.3-0.6-0.6-0.5-0.5-1-1-2.2-2.1-4.8-4-0.8-0.6-1.7-1.2-1-0.7-2.1-1.3-0.4-0.2-0.7-0.4-1.4-0.8-2.8-1.4-0.3-0.2-0.7-0.4-0.1-0.1-0.3-0.1-0.2-0.1-0.4-0.2c-3.4-1.5-6.9-2.6-10.6-3.3q-0.5-0.1-1.1-0.1-1.8-0.4-3.7-0.5-0.4 0-0.7 0-1.4-0.1-2.9-0.1v-40.7c48.5 0 87.9 39.3 87.9 87.9z"/>
		<g id="Layer">
			<path id="Layer" class="s1" d="m252.1 24q0.5-0.2 1-0.5-0.2 0.1-0.5 0.2-0.2 0.2-0.5 0.3z"/>
			<path id="Layer" class="s1" d="m254 22.9q-0.4 0.3-0.9 0.6 0.5-0.3 0.9-0.6z"/>
			<path id="Layer" class="s1" d="m251.1 24.6q0.5-0.3 1-0.6-0.5 0.3-1 0.6z"/>
			<path id="Layer" class="s1" d="m256 21.9q-0.7 0.4-1.5 0.8 0.9-0.5 1.8-0.9-0.2 0-0.3 0.1z"/>
			<path id="Layer" class="s1" d="m256.9 21.4q0.3-0.1 0.6-0.2-0.3 0.1-0.5 0.2 0 0-0.1 0z"/>
			<path id="Layer" class="s1" d="m258.3 20.8q-0.4 0.2-0.8 0.4 0.4-0.2 0.8-0.4z"/>
			<path id="Layer" class="s1" d="m260.8 19.6c-0.1 0-0.1 0.1-0.2 0.1q0.2-0.1 0.4-0.2-0.1 0.1-0.3 0.1z"/>
			<path id="Layer" class="s1" d="m260 20q0.3-0.2 0.6-0.3-0.3 0.1-0.6 0.3z"/>
			<path id="Layer" class="s1" d="m258.3 20.8q0.9-0.5 1.7-0.8-0.8 0.4-1.7 0.7z"/>
			<path id="Layer" class="s1" d="m262 19.1q-0.2 0-0.3 0.1 0.6-0.3 1.2-0.5-0.5 0.2-0.9 0.4z"/>
			<path id="Layer" class="s1" d="m265.5 17.7q-0.1 0-0.3 0.1 0.2-0.1 0.3-0.1z"/>
			<path id="Layer" class="s1" d="m265.9 17.5q-0.2 0.1-0.4 0.2 0.4-0.2 0.7-0.3-0.2 0.1-0.3 0.1z"/>
			<path id="Layer" class="s1" d="m263.9 18.3q-0.5 0.2-0.9 0.4 1.1-0.5 2.2-0.9-0.2 0.1-0.4 0.2-0.4 0.1-0.9 0.3z"/>
			<path id="Layer" class="s1" d="m267 17.1q-0.3 0.1-0.5 0.2 0.4-0.2 0.9-0.3-0.2 0.1-0.4 0.1z"/>
			<path id="Layer" class="s1" d="m271.9 15.6q-1.7 0.4-3.3 1 1.6-0.6 3.3-1z"/>
			<path id="Layer" class="s1" d="m272 15.5q0 0-0.1 0.1 0 0 0.1-0.1 0 0 0.1 0z"/>
			<path id="Layer" class="s1" d="m268.6 16.6q-0.3 0.1-0.6 0.2 0.3-0.1 0.5-0.2 0 0 0.1 0z"/>
			<path id="Layer" class="s1" d="m272.6 15.3q-0.2 0.1-0.5 0.2 0.3-0.1 0.6-0.2 0 0-0.1 0z"/>
			<path id="Layer" class="s1" d="m267.5 17q0.2-0.1 0.5-0.2-0.1 0-0.1 0-0.2 0.1-0.4 0.2z"/>
			<path id="Layer" class="s1" d="m272.7 15.3q0 0 0 0 0.1 0 0.3-0.1-0.2 0.1-0.3 0.1z"/>
			<path id="Layer" class="s1" d="m274 15c0 0-0.1 0-0.1 0q1-0.3 2-0.5-0.6 0.1-1.2 0.3-0.4 0.1-0.7 0.2z"/>
			<path id="Layer" class="s1" d="m277.5 14.1q-0.5 0.1-1.1 0.3 0.3-0.1 0.6-0.2 0.2 0 0.5-0.1z"/>
			<path id="Layer" class="s1" d="m278.1 14q-0.3 0.1-0.6 0.1 0.6-0.1 1.2-0.2-0.3 0-0.6 0.1z"/>
			<path id="Layer" class="s1" d="m280.1 13.6q-0.2 0-0.4 0.1 0.2-0.1 0.4-0.1z"/>
			<path id="Layer" class="s1" d="m279 13.8q0.4-0.1 0.7-0.1-0.2 0-0.3 0-0.2 0.1-0.4 0.1z"/>
			<path id="Layer" class="s1" d="m282.5 13.2q-0.3 0-0.5 0.1 0.3-0.1 0.7-0.1-0.1 0-0.2 0z"/>
			<path id="Layer" class="s1" d="m283.3 13.1c0 0-0.1 0-0.1 0q0.1 0 0.2-0.1-0.1 0-0.1 0.1z"/>
			<path id="Layer" class="s1" d="m291.6 12.2q-0.4 0-0.8 0.1 0.5-0.1 1-0.1-0.1 0-0.2 0z"/>
			<path id="Layer" class="s1" d="m254.5 177.3q0.6 0.3 1.1 0.6-0.5-0.3-1.1-0.6z"/>
			<path id="Layer" class="s1" d="m256 178.1q0.1 0.1 0.3 0.2-0.3-0.2-0.7-0.4 0.2 0.1 0.4 0.2z"/>
			<path id="Layer" class="s1" d="m258.3 179.3q0.9 0.4 1.7 0.8-0.8-0.4-1.7-0.8z"/>
			<path id="Layer" class="s1" d="m260.8 180.4c-0.1 0 0 0 0 0q-0.1 0-0.1 0 0 0 0 0z"/>
			<path id="Layer" class="s1" d="m263.9 181.7q0.2 0.1 0.4 0.2-0.4-0.2-0.9-0.4 0.3 0.2 0.5 0.2z"/>
			<path id="Layer" class="s1" d="m264.8 182.1q0.1 0 0.2 0.1-0.2-0.1-0.3-0.2 0 0.1 0.1 0.1z"/>
			<path id="Layer" class="s1" d="m265.9 182.5q0.1 0.1 0.3 0.1-0.3-0.1-0.6-0.2 0.2 0 0.3 0.1z"/>
			<path id="Layer" class="s1" d="m267 182.9q0.2 0.1 0.4 0.1-0.5-0.1-0.9-0.3 0.2 0.1 0.4 0.2z"/>
			<path id="Layer" class="s1" d="m267.9 183.2c0 0 0 0 0 0q-0.2 0-0.4-0.1 0.2 0 0.4 0.1z"/>
			<path id="Layer" class="s1" d="m268.6 183.4q0.8 0.3 1.6 0.6-0.8-0.3-1.6-0.6z"/>
			<path id="Layer" class="s1" d="m272.6 184.7q0.1 0 0.1 0-0.1 0-0.2-0.1 0.1 0.1 0.1 0.1z"/>
			<path id="Layer" class="s1" d="m272.7 184.7q0.2 0 0.3 0.1-0.2-0.1-0.3-0.1 0 0 0 0z"/>
			<path id="Layer" class="s1" d="m274 185q0.2 0.1 0.3 0.1-0.2 0-0.4-0.1 0 0 0.1 0z"/>
			<path id="Layer" class="s1" d="m274.7 185.2q0.6 0.2 1.2 0.3-0.8-0.2-1.5-0.4 0.1 0.1 0.3 0.1z"/>
			<path id="Layer" class="s1" d="m278.1 186q0.3 0.1 0.6 0.2-0.6-0.2-1.2-0.3 0.3 0.1 0.6 0.1z"/>
			<path id="Layer" class="s1" d="m279.4 186.3q0.1 0 0.3 0.1-0.3-0.1-0.7-0.2 0.2 0 0.4 0.1z"/>
			<path id="Layer" class="s1" d="m283.3 187c0 0 0.1 0 0.1 0q-0.1 0-0.2 0 0.1 0 0.1 0z"/>
			<path id="Layer" class="s1" d="m273.8 15q0 0 0.1 0-0.2 0.1-0.4 0.1 0.2 0 0.3-0.1z"/>
			<path id="Layer" class="s1" d="m282.9 13.1q0.2 0 0.3 0-0.3 0-0.5 0 0.1 0 0.2 0z"/>
			<path id="Layer" class="s1" d="m287.7 12.5q0.4 0 0.8-0.1-0.8 0.1-1.5 0.2 0.2 0 0.3-0.1 0.2 0 0.4 0z"/>
			<path id="Layer" class="s1" d="m290 12.3q0.1 0 0.2 0-0.5 0-1 0.1 0.4 0 0.8-0.1z"/>
			<path id="Layer" class="s1" d="m252.1 176q0.1 0.1 0.2 0.1-0.2-0.1-0.4-0.2 0.1 0 0.2 0.1z"/>
			<path id="Layer" class="s1" d="m268 183.2q0.1 0.1 0.2 0.1-0.1 0-0.2-0.1 0 0 0 0z"/>
			<path id="Layer" class="s1" d="m273.5 184.9q0.2 0.1 0.4 0.1 0 0-0.1 0-0.1 0-0.2 0z"/>
			<path id="Layer" class="s1" d="m282.7 186.9q0.3 0 0.5 0.1-0.1-0.1-0.3-0.1-0.1 0-0.2 0z"/>
			<path id="Layer" class="s1" d="m287.1 187.5q0.7 0 1.3 0.1-0.3 0-0.7-0.1-0.2 0-0.4 0-0.1 0-0.2 0z"/>
			<path id="Layer" class="s1" d="m289.2 187.6q0.5 0.1 1 0.1-0.1 0-0.2 0-0.4 0-0.8 0z"/>
			<path id="Layer" class="s1" d="m296.4 12.1v13h-46.1q0.2-0.1 0.3-0.2 0 0 0 0 0.1 0 0.1 0 0.2-0.1 0.4-0.3 0.8-0.4 1.5-0.8 0.7-0.4 1.4-0.8 0.3-0.2 0.5-0.3 0.8-0.4 1.5-0.8 0.1-0.1 0.3-0.1 0-0.1 0.1-0.1 0.3-0.1 0.5-0.3 0.1 0 0.1 0 0.7-0.3 1.3-0.6 0 0 0 0 0.9-0.4 1.7-0.8 0.4-0.2 0.8-0.4 0.1 0 0.3-0.1 0.1-0.1 0.2-0.1 0.2-0.1 0.4-0.2 0.1-0.1 0.3-0.1 0.5-0.2 1-0.4 0.5-0.2 0.9-0.4 0.5-0.2 0.9-0.4 0.6-0.2 1.1-0.4 0.2 0 0.3-0.1 0.1-0.1 0.3-0.1 0.2-0.1 0.5-0.2 0.2 0 0.4-0.1 0 0 0.1-0.1 0.2 0 0.4-0.1 0.3-0.1 0.7-0.2 1.6-0.6 3.4-1.1 0.3-0.1 0.7-0.2 0 0 0 0 0 0 0 0 0 0 0 0 0.2 0 0.3-0.1 0.3 0 0.6-0.1 0.1 0 0.3-0.1 0 0 0 0 0.1 0 0.1 0 0.4-0.1 0.8-0.2 0.5-0.1 1.1-0.3 0.3 0 0.5-0.1 0.3-0.1 0.6-0.1 0.3-0.1 0.5-0.1 0.3-0.1 0.6-0.2 0.3 0 0.6-0.1 0.2 0 0.4-0.1 0.1 0 0.3 0 0.4-0.1 0.7-0.2 0.4 0 0.8-0.1 0.3-0.1 0.5-0.1 0.3-0.1 0.6-0.1 0 0 0 0 0.2 0 0.5-0.1 0.1 0 0.2 0 0 0 0 0 0.3-0.1 0.5-0.1 0.1 0 0.1 0 0.1 0 0.2 0 0 0 0.1 0 0.3-0.1 0.6-0.1 0.2-0.1 0.5-0.1 0.3 0 0.6-0.1 0.8-0.1 1.7-0.2 0.7-0.1 1.5-0.1 0.4-0.1 0.7-0.1 0.5 0 1-0.1 0.3 0 0.5 0 0.1 0 0.1 0 0.5 0 0.9 0 0.1 0 0.2-0.1 0 0 0 0 0.5 0 1 0 0.3 0 0.5 0 0.2 0 0.5 0 0.1 0 0.2 0 0.1 0 0.2 0 0.2 0 0.3 0 0.9 0 1.7 0h0.2z"/>
			<path id="Layer" class="s1" d="m296.4 52.8v94.5h-0.1q-0.7 0-1.4-0.1h-72.7c-2.6-4.1-4.9-8.4-6.8-13h48.4q-0.5-0.5-0.9-0.9-0.3-0.3-0.6-0.7-1.2-1.2-2.4-2.6-0.5-0.6-1.1-1.3-0.4-0.7-0.9-1.3-0.7-1-1.3-1.9-0.3-0.5-0.6-1-0.2-0.4-0.4-0.8-0.1-0.1-0.2-0.3-0.3-0.4-0.4-0.7-0.1-0.2-0.2-0.4-0.2-0.4-0.5-0.8-0.2-0.5-0.5-1-0.4-0.8-0.7-1.7-0.3-0.7-0.6-1.5-0.4-0.8-0.7-1.6-0.2-0.8-0.5-1.6-0.7-2.3-1.2-4.6-0.1-0.6-0.2-1.1-0.1-1-0.3-1.9h-40.9q-0.2-3.2-0.2-6.5 0-3.3 0.2-6.5h40.9q0.1-0.3 0.1-0.7 0.1-0.6 0.2-1.1 0.1-0.6 0.2-1.2 0.3-1.1 0.6-2.3 0 0 0 0 0.2-1.1 0.6-2.2 0.2-0.6 0.4-1.1 0.1-0.6 0.3-1.1 0.2-0.6 0.4-1.1 1.3-3.2 3-6.2 0.6-1 1.2-1.9 0 0 0 0 0.6-1 1.3-1.9 0.4-0.6 0.8-1.2 0.6-0.7 1.2-1.4 1.1-1.4 2.3-2.7 0.4-0.3 0.7-0.6 0.4-0.5 0.9-1h-48.4c1.9-4.5 4.2-8.9 6.8-13h74.2z"/>
			<path id="Layer" class="s1" d="m296.4 174.9v13h-0.1q-0.9 0-1.8 0 0 0-0.1 0-0.1 0-0.1 0-0.1 0-0.1 0-0.1 0-0.1 0 0 0-0.1 0-0.1 0-0.1 0-0.2 0-0.4 0 0 0 0 0-0.1 0-0.2 0-0.2 0-0.3 0-0.1 0-0.1 0-0.5 0-1 0-0.1 0-0.3 0-0.2-0.1-0.5-0.1-0.3 0-0.5 0-0.2 0-0.4 0-0.5-0.1-1-0.1-0.4 0-0.7-0.1-0.7 0-1.4-0.1-0.2 0-0.5-0.1-0.2 0-0.4 0-0.2 0-0.4 0-0.3-0.1-0.6-0.1-0.2 0-0.4-0.1 0 0-0.1 0 0 0 0 0-0.3 0-0.5 0-0.3-0.1-0.6-0.1-0.1 0-0.1 0-0.1-0.1-0.2-0.1 0 0 0 0 0 0-0.1 0-0.2 0-0.5 0-0.1-0.1-0.2-0.1-0.3 0-0.5-0.1-0.2 0-0.5 0-0.3-0.1-0.6-0.2-0.3 0-0.6-0.1-0.2 0-0.4 0-0.1 0-0.2-0.1-0.1 0-0.3 0-0.2-0.1-0.3-0.1-0.2 0-0.4-0.1-0.3 0-0.6-0.1-0.3-0.1-0.5-0.1-0.3-0.1-0.6-0.1-0.5-0.2-1.1-0.3-0.6-0.1-1.1-0.3-0.2 0-0.4-0.1-0.2 0-0.4-0.1 0 0-0.1 0 0 0 0 0-0.1 0-0.3-0.1-0.3 0-0.6-0.1-0.1-0.1-0.3-0.1 0 0 0 0 0 0 0 0 0 0 0 0-0.1 0-0.2-0.1-0.1 0-0.2 0-0.1 0-0.2-0.1-0.1 0-0.1 0-0.9-0.3-1.7-0.5-0.9-0.3-1.7-0.5 0 0 0 0-0.2-0.1-0.4-0.2-0.1 0-0.2 0 0 0 0 0 0 0 0 0-0.1 0-0.1-0.1-0.2 0-0.4-0.1 0 0-0.1 0-0.2-0.1-0.4-0.2-0.2-0.1-0.4-0.1-0.2-0.1-0.4-0.2-0.1 0-0.2-0.1-0.2 0-0.3-0.1-0.4-0.1-0.7-0.2-0.1-0.1-0.2-0.1-0.1 0-0.1-0.1-0.2 0-0.3-0.1-0.2-0.1-0.4-0.1-0.3-0.1-0.5-0.2-0.3-0.2-0.6-0.3 0 0-0.1 0-0.4-0.2-0.8-0.4-0.6-0.2-1.1-0.5-0.1 0-0.1 0-0.1 0-0.1 0-0.3-0.2-0.7-0.3-0.8-0.4-1.7-0.8 0 0 0 0-0.4-0.2-0.8-0.4-0.2-0.1-0.4-0.2-0.2-0.1-0.4-0.2-0.1-0.1-0.3-0.2 0 0-0.1 0-0.1-0.1-0.2-0.1-0.2-0.1-0.4-0.2-0.6-0.4-1.1-0.7-1-0.5-1.9-1-0.2-0.1-0.3-0.2-0.1 0-0.2-0.1-0.1-0.1-0.3-0.1-0.6-0.4-1.2-0.8 0 0-0.1 0-0.1-0.1-0.2-0.2h46.1z"/>
		</g>
	</g>
</svg>